<svg width="60" height="60" viewBox="0 0 60 60" fill="none" xmlns="http://www.w3.org/2000/svg">
<g clip-path="url(#clip0_35_779)">
<path d="M4.37971 34.7585L4.77971 36.7475C4.91252 37.4896 5.48908 38.074 6.23127 38.2146C7.01095 38.4256 7.80627 38.5724 8.60939 38.6552C9.10002 38.6552 9.57033 38.4631 9.91877 38.1178L27.7188 20.3135L28.2188 20.8135C28.7266 21.3229 29.4141 21.6088 30.1328 21.6088C30.8516 21.6088 31.5406 21.3213 32.0469 20.8135L38.2906 14.5715C39.1219 13.745 39.5875 12.6215 39.5828 11.4513V10.6575C39.5828 10.0169 39.836 9.40288 40.2891 8.95133L41.7031 7.5373C42.9578 6.27327 43.3313 4.37957 42.65 2.73274C41.9688 1.08591 40.3672 0.00937475 38.5859 0C36.4406 0 35.5078 1.25153 34.0516 2.70618C33.5984 3.16085 32.9844 3.41554 32.3438 3.41241H31.5516C30.3797 3.40929 29.2563 3.8749 28.4297 4.70613L22.1875 10.9482C21.1313 12.0059 21.1313 13.7184 22.1875 14.7762L22.6875 15.2762L4.88752 33.0773C4.44846 33.5179 4.25783 34.1491 4.37971 34.7585ZM23.6 12.3637L26.5156 9.44975L30.0328 12.9668C30.2844 13.2262 30.6563 13.3309 31.0063 13.2403C31.3563 13.1481 31.6281 12.8762 31.7203 12.5262C31.8125 12.1762 31.7078 11.8044 31.4469 11.5528L27.9297 8.03573L29.8438 6.12172C30.2953 5.66704 30.9094 5.41236 31.5516 5.41392H32.3438C34.4891 5.41392 35.4235 4.16395 36.8797 2.70774C37.8344 1.79527 39.3391 1.79527 40.2938 2.70774C41.2344 3.65147 41.2344 5.17799 40.2938 6.12328C38.8281 7.58886 37.5875 8.51696 37.5875 10.6575V11.4513C37.5891 12.0919 37.3344 12.7059 36.8813 13.1575L34.9656 15.0715L33.8656 13.9715C33.6141 13.7121 33.2422 13.6075 32.8922 13.6981C32.5438 13.7903 32.2703 14.0637 32.1781 14.4121C32.086 14.7621 32.1906 15.134 32.4516 15.3855L33.5516 16.4855L30.636 19.4011C30.3563 19.6682 29.9156 19.6682 29.636 19.4011L23.6 13.3653C23.4672 13.2325 23.3938 13.0528 23.3938 12.8653C23.3938 12.6778 23.4688 12.4981 23.6 12.3653V12.3637ZM26.3078 18.8995L18.8078 26.3993L16.6 24.1884L24.1 16.6886L26.3078 18.8995ZM15.1891 25.5993L17.3985 27.8102L8.56096 36.6444L6.72502 36.2741L6.35314 34.4366L15.1875 25.5993H15.1891Z" fill="black"/>
<path d="M8 59.9985C12.3359 60.0719 15.9141 56.622 16 52.2862C16 49.3019 12.3219 43.5333 10.3531 41.1083C9.77344 40.4052 8.91094 39.9974 8 39.9974C7.08906 39.9974 6.22656 40.4052 5.64687 41.1083C3.67969 43.5348 0 49.2988 0 52.2862C0.0859375 56.622 3.66406 60.0704 8 59.9985ZM7.2 42.3708C7.4 42.1349 7.69219 41.9989 8 41.9989C8.30781 41.9989 8.60156 42.1349 8.8 42.3708C10.9203 44.9817 14 50.144 14 52.2877C13.9156 55.5189 11.2328 58.0735 8 57.9985C4.76875 58.0735 2.08438 55.5189 2 52.2877C2 50.144 5.07969 44.9817 7.2 42.3708Z" fill="black"/>
<path d="M3.96405 53.9986C4.5203 55.111 5.56873 55.8954 6.79374 56.1141C7.32967 56.2485 7.87342 55.9219 8.00624 55.386C8.14061 54.8501 7.81405 54.3064 7.27811 54.1736C6.65155 54.0876 6.09842 53.7157 5.7828 53.1673C5.54686 52.3689 5.62655 51.5096 6.00623 50.7674C6.25311 50.2737 6.05155 49.6721 5.55624 49.4252C5.06092 49.1784 4.46092 49.3799 4.21405 49.8752C3.56405 51.1564 3.47342 52.6486 3.96249 53.9986H3.96405Z" fill="black"/>
<path d="M55.6297 26.9993C54.3094 26.9618 53.2594 25.8774 53.264 24.5571C53.7297 24.1743 54 23.6025 54 22.9994V18.9995C54.0172 17.9135 53.1515 17.0183 52.0656 16.9995H39.9344C38.8484 17.0183 37.9844 17.9135 38 18.9995V22.9994C38 23.6025 38.2703 24.1743 38.7359 24.5571C38.7406 25.8774 37.6906 26.9618 36.3703 26.9993C33.9219 27.0383 31.9672 29.0508 32 31.4991V55.9985C31.9719 58.1766 33.7109 59.9656 35.889 59.9984H56.1109C58.289 59.964 60.0281 58.1766 60 55.9985V31.4991C60.0328 29.0508 58.0781 27.0383 55.6297 26.9993ZM34 33.9991H58V51.9986H34V33.9991ZM51.9937 18.9854C51.9937 18.9854 52 18.9807 52 18.9995L52.0656 22.9994H40L39.9344 18.987H51.9937V18.9854ZM36.3703 28.9992C38.6265 28.968 40.4969 27.2446 40.714 24.9993H51.2844C51.5015 27.2446 53.3734 28.968 55.6297 28.9992C56.9734 29.0383 58.0328 30.1554 58 31.4991V31.9991H34V31.4991C33.9672 30.1554 35.0265 29.0383 36.3703 28.9992ZM56.1109 57.9984H35.889C34.8156 57.9656 33.9719 57.0719 34 55.9985V53.9986H58V55.9985C58.0281 57.0719 57.1844 57.9656 56.1109 57.9984Z" fill="black"/>
<path d="M54.6688 36.8428C54.625 36.5663 54.4672 36.3194 54.2328 36.1647C53.9985 36.01 53.711 35.96 53.4391 36.0272C53.2266 36.0804 48.6188 37.2459 46.061 39.2521C43.4766 37.3038 39.1281 36.1725 38.5422 36.0272C38.2688 35.9585 37.9813 36.0085 37.7469 36.1647C37.5125 36.321 37.3547 36.5678 37.3125 36.846C37.2032 37.5663 36.286 43.9645 38.1735 46.7801C40.0922 49.6394 43.8094 50.9628 46.4891 49.1972C46.5891 49.1363 46.6625 49.0503 46.7516 48.9816C46.7828 48.9675 46.8141 48.9503 46.8438 48.9331C46.875 48.9081 46.8907 48.8722 46.9188 48.8456C47.8282 48.0754 48.436 47.0082 48.636 45.8332L50.7172 43.6989C51.1032 43.302 51.0969 42.6692 50.7 42.2818C50.3032 41.8958 49.6703 41.9036 49.2828 42.2989L48.5297 43.0739C48.3172 42.2224 47.961 41.4162 47.475 40.6865C49.1344 39.6193 50.9438 38.8053 52.8422 38.2709C53.1047 40.7052 53.1266 44.102 52.2203 45.4707C51.686 46.2957 50.9297 46.9551 50.0391 47.3707C49.6078 47.5629 49.3703 48.0316 49.4688 48.4925C49.5672 48.9535 49.9766 49.2847 50.4485 49.2831C51.8922 48.8331 53.1188 47.866 53.8922 46.5676C55.7172 43.813 54.7828 37.5475 54.6703 36.8413L54.6688 36.8428ZM39.8344 45.6676C38.8078 44.1364 38.9266 40.4677 39.15 38.2678C41.575 38.999 44.8438 40.3521 45.7907 41.7615C46.8422 43.1474 47.0297 45.0051 46.2766 46.5738L43.7875 43.3817C43.4485 42.9458 42.8203 42.8677 42.3844 43.2083C41.9485 43.5473 41.8703 44.177 42.211 44.6114L44.7313 47.8457C43.1328 48.3832 41.0735 47.5113 39.8344 45.6692V45.6676Z" fill="black"/>
</g>
<defs>
<clipPath id="clip0_35_779">
<rect width="60" height="60" fill="white"/>
</clipPath>
</defs>
</svg>
