<svg width="64" height="64" viewBox="0 0 64 64" fill="none" xmlns="http://www.w3.org/2000/svg">
<g clip-path="url(#clip0_35_786)">
<path d="M60.8002 19.2001H54.4002V14.9334H55.4668C56.3352 14.9334 57.1185 14.4068 57.4435 13.6001C57.7702 12.7951 57.5752 11.8718 56.9502 11.2668L50.5252 4.84343C49.6919 4.07343 48.4035 4.08343 47.5818 4.86676L41.2085 11.2434C40.5702 11.8418 40.3619 12.7701 40.6835 13.5834C41.0052 14.3968 41.7919 14.9318 42.6669 14.9334H43.7335V19.2001H37.3335V10.6668H38.4002C39.2702 10.6668 40.0519 10.1401 40.3785 9.33343C40.7052 8.52676 40.5102 7.60343 39.8852 7.00009L33.4585 0.57676C32.6252 -0.19324 31.3369 -0.18324 30.5152 0.600093L24.1419 6.97676C23.5035 7.57509 23.2952 8.50343 23.6168 9.31676C23.9385 10.1301 24.7252 10.6651 25.6002 10.6668H26.6669V19.2001H20.2669V14.9334H21.3335C22.2019 14.9334 22.9852 14.4068 23.3102 13.6001C23.6369 12.7951 23.4402 11.8718 22.8168 11.2668L16.3935 4.84343C15.5602 4.07343 14.2718 4.08343 13.4502 4.86676L7.07685 11.2434C6.43852 11.8418 6.23018 12.7701 6.55185 13.5834C6.87185 14.3968 7.65852 14.9318 8.53352 14.9334H9.60018V19.2001H3.20018C1.43352 19.2001 0.000183105 20.6334 0.000183105 22.4001V27.7334C0.000183105 28.9118 0.955183 29.8668 2.13352 29.8668H61.8669C63.0452 29.8668 64.0002 28.9118 64.0002 27.7334V22.4001C64.0002 20.6334 62.5668 19.2001 60.8002 19.2001ZM42.6935 12.7768L49.0419 6.37676L55.4752 12.8001C55.3685 12.8101 55.8885 12.8001 53.3335 12.8001C52.7452 12.8001 52.2669 13.2768 52.2669 13.8668V23.4668H45.8669V13.8668C45.8669 13.2768 45.3902 12.8001 44.8002 12.8001L42.6935 12.7768V12.7768ZM25.6268 8.51009L31.9752 2.11009L38.4085 8.53343C38.3019 8.54509 38.8219 8.53343 36.2669 8.53343C35.6769 8.53343 35.2002 9.01176 35.2002 9.60009V23.4668H28.8002V9.60009C28.8002 9.01009 28.3218 8.53343 27.7335 8.53343L25.6268 8.51009V8.51009ZM8.56018 12.7768L14.9085 6.37676L21.3419 12.8001C21.2352 12.8101 21.7552 12.8001 19.2002 12.8001C18.6102 12.8001 18.1335 13.2768 18.1335 13.8668V23.4668H11.7335V13.8668C11.7335 13.2768 11.2569 12.8001 10.6669 12.8001L8.56018 12.7768V12.7768ZM61.8669 27.7334H2.13352V22.4001C2.13352 21.8118 2.61018 21.3334 3.20018 21.3334H9.60018V23.4668C9.60018 24.6451 10.5552 25.6001 11.7335 25.6001H18.1335C19.3119 25.6001 20.2669 24.6451 20.2669 23.4668V21.3334H26.6669V23.4668C26.6669 24.6451 27.6219 25.6001 28.8002 25.6001H35.2002C36.3785 25.6001 37.3335 24.6451 37.3335 23.4668V21.3334H43.7335V23.4668C43.7335 24.6451 44.6885 25.6001 45.8669 25.6001H52.2669C53.4452 25.6001 54.4002 24.6451 54.4002 23.4668V21.3334H60.8002C61.3902 21.3334 61.8669 21.8118 61.8669 22.4001V27.7334Z" fill="black"/>
<path d="M62.04 50.8152C48.945 49.7252 43.2667 49.6185 28.85 52.9335C20.2434 55.0052 11.2567 54.8918 2.70503 52.6052C2.06336 52.4235 1.37169 52.5535 0.840026 52.9568C0.30836 53.3602 -0.00330686 53.9902 2.64691e-05 54.6568V61.8668C2.64691e-05 63.0452 0.955026 64.0002 2.13336 64.0002H61.8667C63.045 64.0002 64 63.0452 64 61.8668V52.9418C63.9934 51.8335 63.1434 50.9119 62.04 50.8152ZM61.8667 61.8668H2.13336V54.6602C11.0284 57.0318 20.3734 57.1518 29.3267 55.0118C43.2 51.8218 48.9017 51.8485 61.8667 52.9418V61.8668V61.8668Z" fill="black"/>
<path d="M61.8667 32H2.13336C0.955023 32 2.28466e-05 32.955 2.28466e-05 34.1333V48.17C-0.00831049 49.11 0.605023 49.9417 1.50336 50.215C10.5784 52.775 20.16 52.9583 29.3284 50.7483C43.1767 47.5583 48.645 47.5917 61.6834 48.6617C62.2784 48.7133 62.8667 48.5133 63.3084 48.1083C63.7484 47.705 64 47.135 64 46.5383V34.1333C64 32.955 63.045 32 61.8667 32V32ZM61.8667 46.5317C57.5667 46.1833 53.2117 45.8383 49.0867 45.8667C34.7217 45.9483 28.5534 50.1333 16.155 50.1333C11.41 50.1683 6.68669 49.5083 2.13502 48.17V34.1333H61.8667V46.5317V46.5317Z" fill="black"/>
<path d="M7.46665 37.3333C7.46665 37.9233 6.98831 38.3999 6.39998 38.3999C5.81165 38.3999 5.33331 37.9233 5.33331 37.3333C5.33331 36.7433 5.81165 36.2666 6.39998 36.2666C6.98831 36.2666 7.46665 36.7433 7.46665 37.3333Z" fill="black"/>
<path d="M11.7333 37.3333C11.7333 37.9233 11.2566 38.3999 10.6666 38.3999C10.0766 38.3999 9.59998 37.9233 9.59998 37.3333C9.59998 36.7433 10.0766 36.2666 10.6666 36.2666C11.2566 36.2666 11.7333 36.7433 11.7333 37.3333Z" fill="black"/>
<path d="M16 37.3333C16 37.9233 15.5216 38.3999 14.9333 38.3999C14.345 38.3999 13.8666 37.9233 13.8666 37.3333C13.8666 36.7433 14.345 36.2666 14.9333 36.2666C15.5216 36.2666 16 36.7433 16 37.3333Z" fill="black"/>
<path d="M20.2667 37.3333C20.2667 37.9233 19.7884 38.3999 19.2 38.3999C18.6117 38.3999 18.1334 37.9233 18.1334 37.3333C18.1334 36.7433 18.61 36.2666 19.2 36.2666C19.79 36.2666 20.2667 36.7433 20.2667 37.3333Z" fill="black"/>
<path d="M24.5334 37.3333C24.5334 37.9233 24.0567 38.3999 23.4667 38.3999C22.8767 38.3999 22.4 37.9233 22.4 37.3333C22.4 36.7433 22.8784 36.2666 23.4667 36.2666C24.055 36.2666 24.5334 36.7433 24.5334 37.3333Z" fill="black"/>
<path d="M22.4 40.5332C22.4 41.1216 21.9233 41.5999 21.3333 41.5999C20.7433 41.5999 20.2667 41.1216 20.2667 40.5332C20.2667 39.9449 20.7433 39.4666 21.3333 39.4666C21.9233 39.4666 22.4 39.9432 22.4 40.5332Z" fill="black"/>
<path d="M18.1333 40.5332C18.1333 41.1216 17.655 41.5999 17.0667 41.5999C16.4783 41.5999 16 41.1216 16 40.5332C16 39.9449 16.4783 39.4666 17.0667 39.4666C17.655 39.4666 18.1333 39.9432 18.1333 40.5332Z" fill="black"/>
<path d="M13.8667 40.5332C13.8667 41.1216 13.39 41.5999 12.8 41.5999C12.21 41.5999 11.7333 41.1216 11.7333 40.5332C11.7333 39.9449 12.2117 39.4666 12.8 39.4666C13.3883 39.4666 13.8667 39.9432 13.8667 40.5332Z" fill="black"/>
<path d="M9.60001 40.5332C9.60001 41.1216 9.12168 41.5999 8.53334 41.5999C7.94501 41.5999 7.46667 41.1216 7.46667 40.5332C7.46667 39.9449 7.94334 39.4666 8.53334 39.4666C9.12334 39.4666 9.60001 39.9432 9.60001 40.5332Z" fill="black"/>
<path d="M7.46665 43.7334C7.46665 44.3234 6.98831 44.8001 6.39998 44.8001C5.81165 44.8001 5.33331 44.3217 5.33331 43.7334C5.33331 43.1451 5.81165 42.6667 6.39998 42.6667C6.98831 42.6667 7.46665 43.1451 7.46665 43.7334Z" fill="black"/>
<path d="M11.7333 43.7334C11.7333 44.3234 11.2566 44.8001 10.6666 44.8001C10.0766 44.8001 9.59998 44.3217 9.59998 43.7334C9.59998 43.1451 10.0766 42.6667 10.6666 42.6667C11.2566 42.6667 11.7333 43.1451 11.7333 43.7334Z" fill="black"/>
<path d="M16 43.7334C16 44.3234 15.5216 44.8001 14.9333 44.8001C14.345 44.8001 13.8666 44.3217 13.8666 43.7334C13.8666 43.1451 14.345 42.6667 14.9333 42.6667C15.5216 42.6667 16 43.1451 16 43.7334Z" fill="black"/>
<path d="M20.2667 43.7334C20.2667 44.3234 19.7884 44.8001 19.2 44.8001C18.6117 44.8001 18.1334 44.3217 18.1334 43.7334C18.1334 43.1451 18.61 42.6667 19.2 42.6667C19.79 42.6667 20.2667 43.1451 20.2667 43.7334Z" fill="black"/>
<path d="M9.60001 46.9334C9.60001 47.5217 9.12168 48 8.53334 48C7.94501 48 7.46667 47.5217 7.46667 46.9334C7.46667 46.345 7.94334 45.8667 8.53334 45.8667C9.12334 45.8667 9.60001 46.345 9.60001 46.9334Z" fill="black"/>
<path d="M13.8667 46.9334C13.8667 47.5217 13.39 48 12.8 48C12.21 48 11.7333 47.5217 11.7333 46.9334C11.7333 46.345 12.2117 45.8667 12.8 45.8667C13.3883 45.8667 13.8667 46.345 13.8667 46.9334Z" fill="black"/>
<path d="M18.1333 46.9334C18.1333 47.5217 17.655 48 17.0667 48C16.4783 48 16 47.5217 16 46.9334C16 46.345 16.4783 45.8667 17.0667 45.8667C17.655 45.8667 18.1333 46.345 18.1333 46.9334Z" fill="black"/>
<path d="M22.4 46.9334C22.4 47.5217 21.9233 48 21.3333 48C20.7433 48 20.2667 47.5217 20.2667 46.9334C20.2667 46.345 20.7433 45.8667 21.3333 45.8667C21.9233 45.8667 22.4 46.345 22.4 46.9334Z" fill="black"/>
<path d="M26.6667 46.9334C26.6667 47.5217 26.1883 48 25.6 48C25.0117 48 24.5333 47.5217 24.5333 46.9334C24.5333 46.345 25.0117 45.8667 25.6 45.8667C26.1883 45.8667 26.6667 46.345 26.6667 46.9334Z" fill="black"/>
<path d="M24.5334 43.7334C24.5334 44.3234 24.0567 44.8001 23.4667 44.8001C22.8767 44.8001 22.4 44.3217 22.4 43.7334C22.4 43.1451 22.8784 42.6667 23.4667 42.6667C24.055 42.6667 24.5334 43.1451 24.5334 43.7334Z" fill="black"/>
<path d="M26.6667 40.5332C26.6667 41.1216 26.1883 41.5999 25.6 41.5999C25.0117 41.5999 24.5333 41.1216 24.5333 40.5332C24.5333 39.9449 25.0117 39.4666 25.6 39.4666C26.1883 39.4666 26.6667 39.9432 26.6667 40.5332Z" fill="black"/>
<path d="M28.8 37.3333C28.8 37.9233 28.3217 38.3999 27.7334 38.3999C27.145 38.3999 26.6667 37.9233 26.6667 37.3333C26.6667 36.7433 27.145 36.2666 27.7334 36.2666C28.3217 36.2666 28.8 36.7433 28.8 37.3333Z" fill="black"/>
<path d="M33.0667 37.3333C33.0667 37.9233 32.59 38.3999 32 38.3999C31.41 38.3999 30.9333 37.9233 30.9333 37.3333C30.9333 36.7433 31.41 36.2666 32 36.2666C32.59 36.2666 33.0667 36.7433 33.0667 37.3333Z" fill="black"/>
<path d="M37.3333 37.3333C37.3333 37.9233 36.855 38.3999 36.2667 38.3999C35.6783 38.3999 35.2 37.9233 35.2 37.3333C35.2 36.7433 35.6783 36.2666 36.2667 36.2666C36.855 36.2666 37.3333 36.7433 37.3333 37.3333Z" fill="black"/>
<path d="M35.2 40.5332C35.2 41.1216 34.7233 41.5999 34.1333 41.5999C33.5433 41.5999 33.0667 41.1216 33.0667 40.5332C33.0667 39.9449 33.545 39.4666 34.1333 39.4666C34.7217 39.4666 35.2 39.9432 35.2 40.5332Z" fill="black"/>
<path d="M30.9333 40.5332C30.9333 41.1216 30.455 41.5999 29.8667 41.5999C29.2783 41.5999 28.8 41.1216 28.8 40.5332C28.8 39.9449 29.2767 39.4666 29.8667 39.4666C30.4567 39.4666 30.9333 39.9432 30.9333 40.5332Z" fill="black"/>
<path d="M39.4666 40.5332C39.4666 41.1216 38.9883 41.5999 38.4 41.5999C37.8116 41.5999 37.3333 41.1216 37.3333 40.5332C37.3333 39.9449 37.8116 39.4666 38.4 39.4666C38.9883 39.4666 39.4666 39.9432 39.4666 40.5332Z" fill="black"/>
<path d="M28.8 43.7334C28.8 44.3234 28.3217 44.8001 27.7334 44.8001C27.145 44.8001 26.6667 44.3217 26.6667 43.7334C26.6667 43.1451 27.145 42.6667 27.7334 42.6667C28.3217 42.6667 28.8 43.1451 28.8 43.7334Z" fill="black"/>
<path d="M33.0667 43.7334C33.0667 44.3234 32.59 44.8001 32 44.8001C31.41 44.8001 30.9333 44.3217 30.9333 43.7334C30.9333 43.1451 31.41 42.6667 32 42.6667C32.59 42.6667 33.0667 43.1451 33.0667 43.7334Z" fill="black"/>
<path d="M37.3333 43.7334C37.3333 44.3234 36.855 44.8001 36.2667 44.8001C35.6783 44.8001 35.2 44.3217 35.2 43.7334C35.2 43.1451 35.6783 42.6667 36.2667 42.6667C36.855 42.6667 37.3333 43.1451 37.3333 43.7334Z" fill="black"/>
<path d="M58.6667 37.3333C58.6667 37.9233 58.1883 38.3999 57.6 38.3999C57.0117 38.3999 56.5333 37.9233 56.5333 37.3333C56.5333 36.7433 57.0117 36.2666 57.6 36.2666C58.1883 36.2666 58.6667 36.7433 58.6667 37.3333Z" fill="black"/>
<path d="M54.4 37.3333C54.4 37.9233 53.9233 38.3999 53.3333 38.3999C52.7433 38.3999 52.2667 37.9233 52.2667 37.3333C52.2667 36.7433 52.7433 36.2666 53.3333 36.2666C53.9233 36.2666 54.4 36.7433 54.4 37.3333Z" fill="black"/>
<path d="M50.1333 37.3333C50.1333 37.9233 49.655 38.3999 49.0667 38.3999C48.4783 38.3999 48 37.9233 48 37.3333C48 36.7433 48.4783 36.2666 49.0667 36.2666C49.655 36.2666 50.1333 36.7433 50.1333 37.3333Z" fill="black"/>
<path d="M45.8667 37.3333C45.8667 37.9233 45.39 38.3999 44.8 38.3999C44.21 38.3999 43.7333 37.9233 43.7333 37.3333C43.7333 36.7433 44.2117 36.2666 44.8 36.2666C45.3883 36.2666 45.8667 36.7433 45.8667 37.3333Z" fill="black"/>
<path d="M41.6 37.3333C41.6 37.9233 41.1217 38.3999 40.5333 38.3999C39.945 38.3999 39.4667 37.9233 39.4667 37.3333C39.4667 36.7433 39.9433 36.2666 40.5333 36.2666C41.1233 36.2666 41.6 36.7433 41.6 37.3333Z" fill="black"/>
<path d="M43.7333 40.5332C43.7333 41.1216 43.2566 41.5999 42.6666 41.5999C42.0766 41.5999 41.6 41.1216 41.6 40.5332C41.6 39.9449 42.0766 39.4666 42.6666 39.4666C43.2566 39.4666 43.7333 39.9432 43.7333 40.5332Z" fill="black"/>
<path d="M48 40.5332C48 41.1216 47.5217 41.5999 46.9334 41.5999C46.345 41.5999 45.8667 41.1216 45.8667 40.5332C45.8667 39.9449 46.345 39.4666 46.9334 39.4666C47.5217 39.4666 48 39.9432 48 40.5332Z" fill="black"/>
<path d="M52.2666 40.5332C52.2666 41.1216 51.7883 41.5999 51.2 41.5999C50.6116 41.5999 50.1333 41.1216 50.1333 40.5332C50.1333 39.9449 50.61 39.4666 51.2 39.4666C51.79 39.4666 52.2666 39.9432 52.2666 40.5332Z" fill="black"/>
<path d="M56.5334 40.5332C56.5334 41.1216 56.0567 41.5999 55.4667 41.5999C54.8767 41.5999 54.4 41.1216 54.4 40.5332C54.4 39.9449 54.8784 39.4666 55.4667 39.4666C56.055 39.4666 56.5334 39.9432 56.5334 40.5332Z" fill="black"/>
<path d="M41.6 43.7334C41.6 44.3234 41.1217 44.8001 40.5333 44.8001C39.945 44.8001 39.4667 44.3217 39.4667 43.7334C39.4667 43.1451 39.9433 42.6667 40.5333 42.6667C41.1233 42.6667 41.6 43.1451 41.6 43.7334Z" fill="black"/>
<path d="M45.8667 43.7334C45.8667 44.3234 45.39 44.8001 44.8 44.8001C44.21 44.8001 43.7333 44.3217 43.7333 43.7334C43.7333 43.1451 44.2117 42.6667 44.8 42.6667C45.3883 42.6667 45.8667 43.1451 45.8667 43.7334Z" fill="black"/>
<path d="M50.1333 43.7334C50.1333 44.3234 49.655 44.8001 49.0667 44.8001C48.4783 44.8001 48 44.3217 48 43.7334C48 43.1451 48.4783 42.6667 49.0667 42.6667C49.655 42.6667 50.1333 43.1451 50.1333 43.7334Z" fill="black"/>
<path d="M54.4 43.7334C54.4 44.3234 53.9233 44.8001 53.3333 44.8001C52.7433 44.8001 52.2667 44.3217 52.2667 43.7334C52.2667 43.1451 52.7433 42.6667 53.3333 42.6667C53.9233 42.6667 54.4 43.1451 54.4 43.7334Z" fill="black"/>
<path d="M58.6667 43.7334C58.6667 44.3234 58.1883 44.8001 57.6 44.8001C57.0117 44.8001 56.5333 44.3217 56.5333 43.7334C56.5333 43.1451 57.0117 42.6667 57.6 42.6667C58.1883 42.6667 58.6667 43.1451 58.6667 43.7334Z" fill="black"/>
<path d="M58.6667 54.3999H56.5333C55.945 54.3999 55.4667 54.8782 55.4667 55.4666C55.4667 56.0549 55.9433 56.5332 56.5333 56.5332H58.6667C59.255 56.5332 59.7333 56.0566 59.7333 55.4666C59.7333 54.8766 59.2567 54.3999 58.6667 54.3999Z" fill="black"/>
<path d="M53.3333 55.4666C53.3333 54.8766 52.855 54.3999 52.2667 54.3999H50.1333C49.545 54.3999 49.0667 54.8782 49.0667 55.4666C49.0667 56.0549 49.545 56.5332 50.1333 56.5332H52.2667C52.855 56.5332 53.3333 56.0566 53.3333 55.4666Z" fill="black"/>
<path d="M46.9334 55.4666C46.9334 54.8766 46.455 54.3999 45.8667 54.3999H43.7334C43.145 54.3999 42.6667 54.8782 42.6667 55.4666C42.6667 56.0549 43.145 56.5332 43.7334 56.5332H45.8667C46.455 56.5332 46.9334 56.0566 46.9334 55.4666Z" fill="black"/>
<path d="M40.5333 55.4666C40.5333 54.8766 40.0567 54.3999 39.4667 54.3999H37.3333C36.7433 54.3999 36.2667 54.8782 36.2667 55.4666C36.2667 56.0549 36.7433 56.5332 37.3333 56.5332H39.4667C40.0567 56.5332 40.5333 56.0566 40.5333 55.4666Z" fill="black"/>
<path d="M55.4667 57.6001H53.3333C52.745 57.6001 52.2667 58.0768 52.2667 58.6668C52.2667 59.2568 52.7433 59.7334 53.3333 59.7334H55.4667C56.055 59.7334 56.5333 59.2568 56.5333 58.6668C56.5333 58.0768 56.0567 57.6001 55.4667 57.6001Z" fill="black"/>
<path d="M49.0667 57.6001H46.9334C46.3434 57.6001 45.8667 58.0768 45.8667 58.6668C45.8667 59.2568 46.345 59.7334 46.9334 59.7334H49.0667C49.6567 59.7334 50.1334 59.2568 50.1334 58.6668C50.1334 58.0768 49.655 57.6001 49.0667 57.6001Z" fill="black"/>
<path d="M42.6667 57.6001H40.5333C39.9433 57.6001 39.4667 58.0768 39.4667 58.6668C39.4667 59.2568 39.9433 59.7334 40.5333 59.7334H42.6667C43.255 59.7334 43.7333 59.2568 43.7333 58.6668C43.7333 58.0768 43.2567 57.6001 42.6667 57.6001V57.6001Z" fill="black"/>
<path d="M36.2667 57.6001H34.1333C33.5433 57.6001 33.0667 58.0768 33.0667 58.6668C33.0667 59.2568 33.545 59.7334 34.1333 59.7334H36.2667C36.855 59.7334 37.3333 59.2568 37.3333 58.6668C37.3333 58.0768 36.855 57.6001 36.2667 57.6001Z" fill="black"/>
<path d="M29.8667 57.6001H27.7334C27.145 57.6001 26.6667 58.0768 26.6667 58.6668C26.6667 59.2568 27.145 59.7334 27.7334 59.7334H29.8667C30.455 59.7334 30.9334 59.2568 30.9334 58.6668C30.9334 58.0768 30.455 57.6001 29.8667 57.6001Z" fill="black"/>
<path d="M23.4667 57.6001H21.3333C20.7433 57.6001 20.2667 58.0768 20.2667 58.6668C20.2667 59.2568 20.7433 59.7334 21.3333 59.7334H23.4667C24.0567 59.7334 24.5333 59.2568 24.5333 58.6668C24.5333 58.0768 24.0567 57.6001 23.4667 57.6001Z" fill="black"/>
<path d="M17.0666 57.6001H14.9333C14.3433 57.6001 13.8666 58.0768 13.8666 58.6668C13.8666 59.2568 14.345 59.7334 14.9333 59.7334H17.0666C17.6566 59.7334 18.1333 59.2568 18.1333 58.6668C18.1333 58.0768 17.655 57.6001 17.0666 57.6001Z" fill="black"/>
<path d="M10.6667 57.6001H8.53334C7.94334 57.6001 7.46667 58.0768 7.46667 58.6668C7.46667 59.2568 7.94334 59.7334 8.53334 59.7334H10.6667C11.2567 59.7334 11.7333 59.2568 11.7333 58.6668C11.7333 58.0768 11.2567 57.6001 10.6667 57.6001Z" fill="black"/>
</g>
<defs>
<clipPath id="clip0_35_786">
<rect width="64" height="64" fill="white"/>
</clipPath>
</defs>
</svg>
