<svg width="55" height="71" viewBox="0 0 55 71" fill="none" xmlns="http://www.w3.org/2000/svg">
<g clip-path="url(#clip0_35_846)">
<path d="M35.9972 64.2893C42.0973 62.9842 44.2787 61.516 47.3781 55.3003C48.8051 52.425 52.0977 43.3081 54.4835 37.2796C55.7488 34.1245 53.5414 31.8462 50.7691 33.307C48.7048 34.5008 46.9228 36.1266 45.546 38.0712L46.3784 30.53C46.659 27.9328 44.1914 26.1829 42.1326 27.4453C40.0961 28.7559 38.5446 30.6913 37.7085 32.9603C37.27 32.2707 36.5713 31.7869 35.7705 31.62C34.9696 31.4513 34.1353 31.6144 33.4553 32.0686C31.9075 33.1012 30.6569 34.5212 29.8282 36.1859C29.2634 35.8615 28.6037 35.7465 27.9627 35.8615C28.5461 34.1467 28.7728 32.3282 28.6298 30.5226C28.3343 27.7771 26.872 24.7573 24.1294 25.0168C24.0049 23.1556 23.3472 21.3686 22.236 19.867C21.7213 19.1663 20.913 18.7381 20.0416 18.7084C19.172 18.6769 18.334 19.0458 17.771 19.7094C17.8118 17.1864 16.9999 14.7228 15.4651 12.7188C13.9563 10.8279 11.0409 11.651 10.4277 14.1889L8.59378 21.8153C7.85982 19.385 6.63719 17.129 5.00019 15.1843C2.8578 12.843 0.0353293 14.3075 0.15239 17.661C0.379079 24.8741 0.724687 34.1096 1.08516 37.1461C1.84327 43.6381 3.45611 47.2956 10.8439 50.5527C12.5162 51.0885 14.0009 52.0877 15.125 53.4335C13.2911 54.7719 11.8009 56.5275 10.7789 58.5537C9.3909 61.6143 8.37638 64.8306 7.75948 68.1303C7.60898 68.8311 7.78364 69.5614 8.23516 70.1176C8.68668 70.6737 9.36675 70.9981 10.084 70.9981H24.096C24.9749 71.0074 25.785 70.5217 26.1919 69.7431C27.8865 66.436 32.3478 65.0846 35.9972 64.2874V64.2893ZM9.72536 47.3902C4.96861 44.6929 4.03955 41.9475 3.44682 36.8699C3.17367 34.5657 2.85222 27.7178 2.52705 17.5869C2.48803 17.1827 2.56607 16.7786 2.75188 16.4171C3.54158 16.5358 6.94749 21.6225 7.31168 27.1283L5.61709 34.1523C5.46472 34.79 5.85864 35.4314 6.49783 35.5834C7.13702 35.7354 7.77807 35.3443 7.93229 34.7066L12.7336 14.7357C12.8526 14.2612 13.3078 13.8311 13.5939 14.1814C15.2923 16.5376 15.846 19.5278 15.1064 22.3325C11.6838 36.5641 12.2784 34.308 11.7265 35.8374C11.5054 36.4547 11.825 37.135 12.4438 37.3556C13.0625 37.5762 13.7445 37.2574 13.9656 36.6401L19.4544 21.4057C19.5157 21.2314 19.6681 21.1053 19.8502 21.0794C20.0323 21.0516 20.2162 21.1294 20.3259 21.2777C21.7901 23.2446 22.1803 25.8084 21.3701 28.1219L17.81 38.0156C17.6576 38.416 17.7338 38.8683 18.0107 39.1964C18.2857 39.5246 18.7186 39.6803 19.1404 39.6006C19.5622 39.5227 19.9097 39.2224 20.049 38.8164C24.384 26.7835 24.0978 27.4101 24.3004 27.3656C24.5884 27.3452 24.8708 27.4564 25.0678 27.6677C25.7924 28.5501 26.2124 29.642 26.2681 30.7821C26.5914 33.763 24.9693 36.9923 24.6125 38.2473C22.4385 41.2727 22.5091 44.4983 22.5091 48.191C22.5091 49.1698 21.647 49.0845 17.063 52.0561C15.0581 49.2514 12.139 48.749 9.72908 47.3865L9.72536 47.3902ZM24.096 68.6271H10.0858C12.7243 56.1271 15.1325 56.2605 23.3843 50.9828C24.3282 50.3711 24.895 49.32 24.8857 48.1947C24.8857 45.7384 24.7798 42.9967 25.8426 40.8148C26.2792 39.7618 27.0429 38.8757 28.0222 38.2881C28.195 38.1843 28.4049 38.1565 28.6 38.2121C28.7301 38.2955 28.6874 38.1398 28.6874 50.4712C28.6874 51.1274 29.2206 51.6576 29.8765 51.6576C30.5325 51.6576 31.0657 51.1255 31.0657 50.4712V40.9557C31.062 38.1787 32.4537 35.5834 34.7727 34.0466C34.9789 33.9076 35.2465 33.8946 35.4657 34.0114C35.685 34.1282 35.8225 34.358 35.8225 34.6065V50.473C35.8225 51.1292 36.3539 51.6594 37.0117 51.6594C37.6694 51.6594 38.2009 51.1292 38.2009 50.473C38.2009 48.812 38.0597 51.094 39.2024 36.6289C39.4569 33.7389 40.9899 31.1121 43.385 29.4659C43.7752 29.2286 44.0632 29.7792 44.0112 30.2723L41.7629 50.6843C41.7164 51.1052 41.8985 51.5204 42.2404 51.7707C42.5823 52.0228 43.0338 52.071 43.4222 51.9004C43.8105 51.7299 44.0799 51.3647 44.1264 50.9439L44.9161 43.7864C46.2502 40.7147 49.0318 36.894 51.8765 35.4036C52.0475 35.3109 52.2296 35.2442 52.4191 35.2015C52.5232 35.6056 52.4693 36.0339 52.2723 36.4009C47.3688 48.7953 45.3602 55.9658 41.9635 59.2359C40.3042 60.8357 38.0541 61.4215 35.4936 61.9646C31.0472 62.9397 26.1733 64.5636 24.096 68.6253V68.6271Z" fill="black"/>
<path d="M35.8243 24.7295C41.0753 24.7239 45.3322 20.4787 45.3378 15.2381C45.3378 11.5676 40.9731 4.45275 38.6375 1.45888C37.963 0.591311 36.9243 0.083374 35.8243 0.083374C34.7243 0.083374 33.6856 0.591311 33.0111 1.45888C30.6755 4.45275 26.3108 11.5676 26.3108 15.2381C26.3164 20.4787 30.5714 24.7239 35.8243 24.7295ZM34.8878 2.91596C35.1108 2.62677 35.4583 2.45622 35.8243 2.45622C36.1904 2.45622 36.536 2.62677 36.7608 2.91596C39.2878 6.15452 42.9594 12.5649 42.9594 15.2381C42.9594 19.17 39.7654 22.3566 35.8243 22.3566C31.8833 22.3566 28.6892 19.1681 28.6892 15.2381C28.6892 12.5649 32.3608 6.15452 34.8878 2.91596Z" fill="black"/>
<path d="M34.3471 19.9486C34.7633 20.0617 35.2093 19.9412 35.5103 19.6353C35.8113 19.3276 35.9246 18.8808 35.802 18.4693C35.6794 18.0559 35.3431 17.7426 34.9231 17.6481C34.1353 17.5387 33.4422 17.0715 33.0483 16.3838C32.7528 15.3883 32.8513 14.3187 33.3233 13.3936C33.615 12.8078 33.3772 12.0941 32.7882 11.8031C32.201 11.512 31.4856 11.7493 31.1939 12.337C30.4005 13.8997 30.289 15.722 30.8855 17.37C31.5674 18.727 32.8513 19.6835 34.349 19.9505L34.3471 19.9486Z" fill="black"/>
</g>
<defs>
<clipPath id="clip0_35_846">
<rect width="55" height="71" fill="white"/>
</clipPath>
</defs>
</svg>
